<svg xmlns="http://www.w3.org/2000/svg" viewBox="0 0 527 549" width="527" height="549" role="img" aria-label="TeVerde29 · language mix" font-family="ui-sans-serif,-apple-system,Segoe UI,Helvetica,Arial,sans-serif"><text x="263.5" y="25" text-anchor="middle" font-size="15" font-weight="700" fill="#F2F7F0">TeVerde29 · language mix</text><g transform="translate(235.1,289.0)"><polygon points="0.0,-212.0 183.6,-106.0 183.6,106.0 0.0,212.0 -183.6,106.0 -183.6,-106.0" fill="none" stroke="#2A4A32" stroke-width="1" opacity="0.85"/><polygon points="0.0,-159.0 137.7,-79.5 137.7,79.5 0.0,159.0 -137.7,79.5 -137.7,-79.5" fill="none" stroke="#2A4A32" stroke-width="1" opacity="0.72"/><polygon points="0.0,-106.0 91.8,-53.0 91.8,53.0 0.0,106.0 -91.8,53.0 -91.8,-53.0" fill="none" stroke="#2A4A32" stroke-width="1" opacity="0.60"/><polygon points="0.0,-53.0 45.9,-26.5 45.9,26.5 0.0,53.0 -45.9,26.5 -45.9,-26.5" fill="none" stroke="#2A4A32" stroke-width="1" opacity="0.47"/><line x1="0" y1="0" x2="0.0" y2="-212.0" stroke="#1C3323" stroke-width="1"/><line x1="0" y1="0" x2="183.6" y2="-106.0" stroke="#1C3323" stroke-width="1"/><line x1="0" y1="0" x2="183.6" y2="106.0" stroke="#1C3323" stroke-width="1"/><line x1="0" y1="0" x2="0.0" y2="212.0" stroke="#1C3323" stroke-width="1"/><line x1="0" y1="0" x2="-183.6" y2="106.0" stroke="#1C3323" stroke-width="1"/><line x1="0" y1="0" x2="-183.6" y2="-106.0" stroke="#1C3323" stroke-width="1"/><g><animateTransform attributeName="transform" type="scale" values="0.04;1" dur="1.1s" calcMode="spline" keyTimes="0;1" keySplines="0.22 1 0.36 1" fill="freeze"/><polygon points="0.0,-190.8 156.1,-90.1 150.5,86.9 0.0,165.4 -157.9,91.2 -119.3,-68.9" fill="#8ED152" fill-opacity="0.22" stroke="#8ED152" stroke-width="2.5" stroke-linejoin="round"/><circle cx="0.0" cy="-190.8" r="3.6" fill="#8ED152" stroke="#8ED152" stroke-width="1.2"/><circle cx="156.1" cy="-90.1" r="3.6" fill="#8ED152" stroke="#8ED152" stroke-width="1.2"/><circle cx="150.5" cy="86.9" r="3.6" fill="#8ED152" stroke="#8ED152" stroke-width="1.2"/><circle cx="0.0" cy="165.4" r="3.6" fill="#8ED152" stroke="#8ED152" stroke-width="1.2"/><circle cx="-157.9" cy="91.2" r="3.6" fill="#8ED152" stroke="#8ED152" stroke-width="1.2"/><circle cx="-119.3" cy="-68.9" r="3.6" fill="#8ED152" stroke="#8ED152" stroke-width="1.2"/></g><text x="0.0" y="-237.0" text-anchor="middle" font-size="13" font-weight="600" fill="#D9EAD3">Java</text><text x="200.9" y="-121.0" text-anchor="start" font-size="13" font-weight="600" fill="#D9EAD3">TypeScript</text><text x="200.9" y="130.0" text-anchor="start" font-size="13" font-weight="600" fill="#D9EAD3">JavaScript</text><text x="0.0" y="246.0" text-anchor="middle" font-size="13" font-weight="600" fill="#D9EAD3">Python</text><text x="-200.9" y="130.0" text-anchor="end" font-size="13" font-weight="600" fill="#D9EAD3">SQL</text><text x="-200.9" y="-121.0" text-anchor="end" font-size="13" font-weight="600" fill="#D9EAD3">C++</text></g></svg>